<?xml version="1.0" encoding="UTF-8" standalone="no"?>
<!-- Created with Inkscape (http://www.inkscape.org/) -->

<svg
   version="1.1"
   id="svg1"
   width="275.39691"
   height="274.66226"
   viewBox="0 0 275.39691 274.66226"
   sodipodi:docname="sepa_generator_icon.png"
   xmlns:inkscape="http://www.inkscape.org/namespaces/inkscape"
   xmlns:sodipodi="http://sodipodi.sourceforge.net/DTD/sodipodi-0.dtd"
   xmlns="http://www.w3.org/2000/svg"
   xmlns:svg="http://www.w3.org/2000/svg">
  <defs
     id="defs1">
    <linearGradient
       id="swatch6"
       inkscape:swatch="solid">
      <stop
         style="stop-color:#000000;stop-opacity:1;"
         offset="0"
         id="stop7" />
    </linearGradient>
  </defs>
  <sodipodi:namedview
     id="namedview1"
     pagecolor="#ffffff"
     bordercolor="#000000"
     borderopacity="0.25"
     inkscape:showpageshadow="2"
     inkscape:pageopacity="0.0"
     inkscape:pagecheckerboard="0"
     inkscape:deskcolor="#d1d1d1"
     inkscape:export-bgcolor="#00000000">
    <inkscape:page
       x="0"
       y="0"
       width="275.39691"
       height="274.66226"
       id="page2"
       margin="0"
       bleed="0" />
  </sodipodi:namedview>
  <g
     inkscape:groupmode="layer"
     inkscape:label="Image"
     id="g1"
     transform="translate(-21.090413,-16.202837)">
    <path
       style="fill:#0f4e52;fill-opacity:1"
       d="M 136.58475,289.89338 C 123.02041,287.91502 102.85794,280.86612 91,273.95672 58.240984,254.86864 36.342406,227.4013 26.456555,193 14.073733,149.90962 23.499309,101.11156 50.829679,66.815545 67.850873,45.456188 89.982732,29.884107 114.42661,22.06844 c 15.1185,-4.833978 27.22354,-6.342104 46.07339,-5.740131 24.6394,0.786863 41.49006,4.987199 61.59829,15.354506 31.64449,16.31512 57.10916,45.905551 68.25807,79.317185 4.86453,14.57827 6.14458,23.24299 6.13086,41.5 -0.0139,18.5312 -1.19939,26.31863 -6.45446,42.39974 -15.66056,47.92318 -59.90194,85.74302 -110.65492,94.5936 -9.38976,1.63744 -32.80803,1.85636 -42.79309,0.40004 z m 42.75878,-15.5529 c 20.23154,-3.89572 43.03101,-14.90029 57.69997,-27.84992 3.00107,-2.64932 5.56916,-5.08102 5.70686,-5.40376 0.1377,-0.32274 -18.4248,-0.46459 -41.25,-0.31521 L 160,241.04317 v 17.31175 c 0,9.52146 0.3049,17.61665 0.67756,17.9893 0.81746,0.81747 8.04246,0.0419 18.66597,-2.00374 z M 148,258.57196 v -17.42805 l -5.75,-0.69384 c -10.02452,-1.20965 -20.72793,-5.1863 -29.17227,-10.83843 l -7.91849,-5.30014 -12.079621,12.10869 C 86.435829,243.07997 81,248.83715 81,249.21391 c 0,2.69704 24.9445,16.70574 37.12504,20.84924 7.57394,2.57645 22.05689,5.76759 26.62496,5.86649 L 148,276 Z M 85.637247,228.98714 97.774495,217.14606 93.782712,211.8335 C 84.276313,199.18167 81,188.27232 81,169.2701 V 156 H 58.362068 35.724137 l 0.671155,7.75 c 2.012398,23.23769 10.058203,45.73803 22.048714,61.65991 6.976527,9.26395 13.711002,16.76866 14.414144,16.06272 0.353017,-0.35442 6.103611,-5.97289 12.779097,-12.48549 z M 148,218.57051 v -10.42949 l 18.54292,-17.32051 c 10.19861,-9.52628 19.76111,-17.87309 21.25,-18.54847 1.87624,-0.85107 8.11322,-1.16172 20.32151,-1.01215 l 17.61443,0.2158 2.83888,-3.37382 c 5.1717,-6.14622 13.22559,-7.77844 20.37757,-4.12977 10.26305,5.23581 12.52777,16.86375 4.96263,25.47997 -7.64296,8.70485 -22.32874,6.61031 -27.31413,-3.89562 L 224.90617,182 h -6.79752 c -3.73864,0 -11.5939,0.29347 -17.45614,0.65215 L 189.9939,183.30431 174.99695,197.23166 160,211.15901 v 8.93029 8.93028 l 47.22727,-0.25979 47.22727,-0.25979 4.9067,-6.5 c 6.20094,-8.21449 14.79281,-25.91374 18.01551,-37.11197 C 287.36666,150.17518 280.91369,113.53364 259.52124,83.5 245.76743,64.190532 225.20882,47.863228 204.64208,39.915901 c -9.10829,-3.519594 -25.51187,-7.917038 -29.5203,-7.913752 -3.74246,0.0031 -79.333591,75.132601 -81.237711,80.741631 -0.789612,2.32599 -1.295877,9.27729 -1.329604,18.25622 L 92.5,145.5 l 10,-0.0581 c 5.5,-0.0319 11.35,-0.40554 13,-0.83019 2.06981,-0.5327 11.26393,-8.99848 29.65239,-27.30339 l 26.65239,-26.531289 -1.50793,-3.609003 C 168.10141,81.913609 168.99724,74.054488 172.3417,69.228421 183.42639,53.23322 209,60.879837 209,80.189402 c 0,6.485273 -1.83938,10.539195 -6.82192,15.035218 -4.97482,4.48906 -7.41194,5.19097 -15.71077,4.524819 l -6.3606,-0.510568 -27.36443,26.722189 C 120.89538,157.06051 122.6225,156 103.82186,156 H 92 l 0.01736,9.75 c 0.0096,5.3625 0.661731,12.79077 1.449292,16.50727 1.473764,6.95469 6.668618,17.95045 10.980828,23.24273 l 2.44443,3 44.30405,-44.14554 c 24.36722,-24.28005 45.28696,-44.64255 46.4883,-45.25 C 198.94292,118.46802 205.34949,118 212.80268,118 h 12.93416 l 4.41384,-4.41384 c 8.66293,-8.66292 21.46483,-6.83168 27.56764,3.94341 7.22663,12.7593 -5.71549,28.78393 -19.83136,24.55471 -4.74731,-1.42233 -10.68345,-6.42525 -11.50428,-9.6957 C 225.79034,130.02852 225.63267,130 213.17939,130 H 200.5756 l -43.13369,43.05799 -43.13369,43.05799 4.42405,3.04382 c 5.91767,4.07147 15.20096,7.75115 22.11683,8.7666 3.10799,0.45634 5.9884,0.88459 6.4009,0.95166 0.4125,0.0671 0.75,-4.57133 0.75,-10.30755 z m 97.30603,-34.5966 c 4.71263,-3.70695 4.38699,-8.16327 -0.84711,-11.59279 -3.27605,-2.14655 -7.80119,-0.38323 -9.49201,3.69877 -1.00696,2.43101 -0.92941,3.32839 0.47251,5.468 1.4297,2.18199 4.43519,4.15785 6.67572,4.38872 0.33833,0.0349 1.77423,-0.84835 3.19089,-1.9627 z M 81,127.5 c 0.48033,-17.29187 0.605307,-18.17703 3.176811,-22.5 1.472246,-2.475 13.993625,-15.75 27.825289,-29.5 13.83166,-13.75 29.69273,-29.605061 35.24682,-35.233469 l 10.09834,-10.233469 -5.42363,0.492491 c -12.76105,1.158762 -16.86596,1.747776 -24.55557,3.523482 C 85.201939,43.786151 51.177982,78.477446 40.128196,123 c -2.282232,9.19573 -4.146947,21.07352 -3.484962,22.19839 0.226052,0.38411 10.1863,0.60911 22.133885,0.5 L 80.5,145.5 Z m 166.54545,3.04545 C 248.89545,129.19545 250,126.925 250,125.5 c 0,-3.41014 -4.16625,-7.5 -7.64009,-7.5 -3.67169,0 -7.35991,3.61799 -7.35991,7.21977 0,3.61606 4.01419,7.78023 7.5,7.78023 1.425,0 3.69545,-1.10455 5.04545,-2.45455 z M 194.64424,86.629592 C 202.0567,80.253661 193.95158,69.011463 184.5448,72.621181 182.56794,73.379773 180,78.129452 180,81.027263 c 0,1.169621 1.31538,3.441968 2.92308,5.04966 3.64613,3.646137 7.89204,3.846337 11.72116,0.552669 z"
       id="path1" />
  </g>
</svg>
