<?xml version="1.0" encoding="UTF-8" standalone="no"?>
<!-- Created with Inkscape (http://www.inkscape.org/) -->

<svg
   version="1.1"
   id="svg1"
   width="256"
   height="256"
   viewBox="0 0 256 256"
   sodipodi:docname="sepa_generator_icon.svg"
   inkscape:export-filename="sepa-generator-icon-light-theme.png"
   inkscape:export-xdpi="96"
   inkscape:export-ydpi="96"
   inkscape:version="1.4.3 (0d15f75, 2025-12-25)"
   xmlns:inkscape="http://www.inkscape.org/namespaces/inkscape"
   xmlns:sodipodi="http://sodipodi.sourceforge.net/DTD/sodipodi-0.dtd"
   xmlns="http://www.w3.org/2000/svg"
   xmlns:svg="http://www.w3.org/2000/svg">
  <defs
     id="defs1">
    <linearGradient
       id="swatch6"
       inkscape:swatch="solid">
      <stop
         style="stop-color:#000000;stop-opacity:1;"
         offset="0"
         id="stop7" />
    </linearGradient>
  </defs>
  <sodipodi:namedview
     id="namedview1"
     pagecolor="#ffffff"
     bordercolor="#000000"
     borderopacity="0.25"
     inkscape:showpageshadow="2"
     inkscape:pageopacity="0.0"
     inkscape:pagecheckerboard="0"
     inkscape:deskcolor="#d1d1d1"
     inkscape:export-bgcolor="#00000000"
     inkscape:zoom="2.6032258"
     inkscape:cx="138.09789"
     inkscape:cy="138.86617"
     inkscape:window-width="1920"
     inkscape:window-height="1009"
     inkscape:window-x="-8"
     inkscape:window-y="-8"
     inkscape:window-maximized="1"
     inkscape:current-layer="g1" />
  <g
     inkscape:groupmode="layer"
     inkscape:label="Image"
     id="g1"
     transform="translate(-21.090413,-16.202837)">
    <path
       style="fill:#0f766e;fill-opacity:1;stroke-width:0.799914"
       d="M 131.35272,253.42451 C 120.51688,251.83987 104.41016,246.19382 94.937477,240.6595 68.768035,225.37026 51.274422,203.36937 43.377139,175.81449 33.485159,141.29979 41.014752,102.21334 62.847537,74.742792 76.444867,57.634295 94.124836,45.161312 113.65175,38.901089 c 12.07737,-3.871937 21.74745,-5.079922 36.80559,-4.597751 19.68312,0.630264 33.14421,3.994665 49.20761,12.298709 25.27911,13.068146 45.62149,36.7696 54.52776,63.531773 3.88601,11.67696 4.90858,18.61726 4.89762,33.24083 -0.0111,14.84319 -0.95813,21.08079 -5.15613,33.9615 -12.51039,38.38568 -47.85248,68.67876 -88.39635,75.76793 -7.50098,1.31156 -26.2086,1.48692 -34.18513,0.32043 z m 34.15772,-12.45762 c 16.16191,-3.12041 34.3752,-11.93489 46.09345,-22.30734 2.3974,-2.12206 4.44891,-4.06981 4.55891,-4.32832 0.11,-0.25851 -14.7186,-0.37213 -32.95244,-0.25248 l -33.15244,0.21753 v 13.86643 c 0,7.62654 0.24357,14.11065 0.54127,14.40914 0.65302,0.65478 6.42469,0.0336 14.91125,-1.60496 z m -25.03868,-12.63033 v -13.95958 l -4.59337,-0.55576 c -8.00806,-0.96891 -16.55845,-4.15414 -23.30419,-8.68141 l -6.32566,-4.24532 -9.649765,9.69886 c -5.307372,5.33438 -9.649768,9.94579 -9.649768,10.24756 0,2.16029 19.926843,13.38103 29.657223,16.69991 6.05042,2.06369 17.62009,4.61974 21.26927,4.69896 l 2.59626,0.0564 z m -49.818302,-23.69696 9.695802,-9.48451 -3.188822,-4.25528 C 89.56628,180.7659 86.949007,172.02769 86.949007,156.80722 V 146.17809 H 68.864763 50.78052 l 0.53615,6.20762 c 1.607598,18.61301 8.034965,36.63542 17.613549,49.38859 5.573178,7.42027 10.952993,13.43142 11.514696,12.86597 0.282006,-0.28388 4.875851,-4.78418 10.208543,-10.00067 z m 49.818302,-8.34355 v -8.35385 l 14.81295,-13.87345 c 8.14713,-7.63039 15.78611,-14.31605 16.9755,-14.85702 1.49883,-0.6817 6.48122,-0.93052 16.23378,-0.81072 l 14.07123,0.17285 2.26783,-2.70237 c 4.1314,-4.92302 10.56523,-6.2304 16.27857,-3.30788 8.1986,4.1938 10.00777,13.50759 3.96438,20.40904 -6.10556,6.97245 -17.83725,5.29475 -21.81981,-3.12033 l -1.34817,-2.84865 h -5.43018 c -2.9866,0 -9.26175,0.23506 -13.94478,0.52236 l -8.5146,0.52237 -11.98027,11.15558 -11.98027,11.15558 v 7.15302 7.153 l 37.72736,-0.20808 37.72737,-0.20809 3.9197,-5.2064 c 4.9536,-6.57967 11.81719,-20.75648 14.39164,-29.72608 7.98041,-27.80443 2.82547,-57.1537 -14.26382,-81.210161 C 218.57298,72.6402 202.14979,59.562295 185.72011,53.196615 c -7.27613,-2.819137 -20.38008,-6.341418 -23.5822,-6.338786 -2.98965,0.0025 -63.375402,60.179991 -64.896503,64.672731 -0.630779,1.86308 -1.035207,7.43096 -1.06215,14.62294 l -0.04351,11.61426 7.988473,-0.0465 c 4.39366,-0.0255 9.06691,-0.32483 10.38501,-0.66497 1.65346,-0.42668 8.99816,-7.20763 23.68772,-21.86957 l 21.29118,-21.251128 -1.2046,-2.890752 c -1.75382,-4.208704 -1.03819,-10.503732 1.63352,-14.369333 8.85497,-12.811896 29.28437,-6.68708 29.28437,8.779567 0,5.194598 -1.46938,8.441724 -5.44967,12.042965 -3.97412,3.595661 -5.921,4.157881 -12.5505,3.624311 l -5.08114,-0.40896 -21.86,21.40404 c -25.4408,24.91011 -24.06109,24.06066 -39.07992,24.06066 h -9.443863 l 0.01387,7.80959 c 0.0077,4.29528 0.528622,10.2452 1.157763,13.22205 1.177312,5.5706 5.32721,14.37802 8.772,18.61705 l 1.95273,2.40295 35.39215,-35.35985 c 19.46568,-19.44793 36.17735,-35.75796 37.13704,-36.24452 1.00548,-0.50978 6.12335,-0.88465 12.0773,-0.88465 h 10.33242 l 3.52598,-3.53542 c 6.92036,-6.93885 17.14712,-5.47206 22.02233,3.15861 5.77297,10.21999 -4.56579,23.05546 -15.84222,19.66792 -3.79238,-1.13926 -8.53444,-5.14652 -9.19015,-7.76609 -0.47319,-1.89037 -0.59916,-1.91322 -10.54741,-1.91322 h -10.0685 l -34.45722,34.48875 -34.45723,34.48875 3.53414,2.43805 c 4.72732,3.26118 12.14325,6.20855 17.66797,7.0219 2.48281,0.36553 4.78382,0.70855 5.11334,0.76227 0.32953,0.0537 0.59914,-3.66156 0.59914,-8.25618 z m 77.73263,-27.71131 c 3.76467,-2.96921 3.50453,-6.53865 -0.67671,-9.28564 -2.61707,-1.71935 -6.23196,-0.30696 -7.58267,2.96265 -0.8044,1.9472 -0.74245,2.66599 0.37747,4.37978 1.14211,1.74774 3.54303,3.33037 5.33287,3.5153 0.27028,0.0279 1.41734,-0.67952 2.54904,-1.57209 z M 86.949007,123.35005 c 0.38371,-13.8505 0.483548,-14.5595 2.537786,-18.02213 1.1761,-1.98244 11.178767,-12.615494 22.228147,-23.629021 11.04938,-11.013526 23.71995,-23.713172 28.15682,-28.221435 l 8.06703,-8.196842 -4.33265,0.394477 c -10.19413,0.92815 -13.47332,1.39994 -19.61615,2.822252 -33.684276,7.799272 -60.864213,35.586434 -69.691301,71.248279 -1.823154,7.36563 -3.312776,16.87954 -2.783951,17.78055 0.18058,0.30766 8.137295,0.48788 17.681587,0.40049 l 17.353259,-0.15891 z m 133.044333,2.43936 c 1.07845,-1.08133 1.96081,-2.89992 1.96081,-4.04132 0,-2.73147 -3.32819,-6.00738 -6.10326,-6.00738 -2.93312,0 -5.87944,2.89795 -5.87944,5.78292 0,2.8964 3.20672,6.23183 5.99135,6.23183 1.13836,0 2.9521,-0.88472 4.03054,-1.96605 z M 177.73337,90.613521 c 5.92142,-5.107017 -0.55333,-14.111834 -8.06791,-11.220509 -1.57921,0.60762 -3.6306,4.412036 -3.6306,6.733135 0,0.936847 1.05079,2.75696 2.33509,4.044695 2.91271,2.920497 6.30454,3.080854 9.36342,0.442679 z"
       id="path1"
       inkscape:export-filename="path1.png"
       inkscape:export-xdpi="89.238472"
       inkscape:export-ydpi="89.238472" />
  </g>
</svg>
