<?xml version="1.0" encoding="UTF-8" standalone="no"?>
<!-- Created with Inkscape (http://www.inkscape.org/) -->

<svg
   version="1.1"
   id="svg1"
   width="256"
   height="256"
   viewBox="0 0 256 256"
   sodipodi:docname="ChatGPT Image Jun 6, 2026, 05_59_46 PM.png"
   inkscape:export-filename="..\workspace\SEPA-generator\view\resources\sepa-generator-icon-app-compact-48.png"
   inkscape:export-xdpi="18"
   inkscape:export-ydpi="18"
   xmlns:inkscape="http://www.inkscape.org/namespaces/inkscape"
   xmlns:sodipodi="http://sodipodi.sourceforge.net/DTD/sodipodi-0.dtd"
   xmlns="http://www.w3.org/2000/svg"
   xmlns:svg="http://www.w3.org/2000/svg">
  <defs
     id="defs1" />
  <sodipodi:namedview
     id="namedview1"
     pagecolor="#ffffff"
     bordercolor="#000000"
     borderopacity="0.25"
     inkscape:showpageshadow="2"
     inkscape:pageopacity="0.0"
     inkscape:pagecheckerboard="0"
     inkscape:deskcolor="#d1d1d1"
     inkscape:export-bgcolor="#00000000">
    <inkscape:page
       x="0"
       y="0"
       width="256"
       height="256"
       id="page2"
       margin="0"
       bleed="0" />
  </sodipodi:namedview>
  <g
     inkscape:groupmode="layer"
     inkscape:label="Image"
     id="g1">
    <path
       style="fill:#0f766e;fill-opacity:1;stroke-width:0.252972"
       d="M 123.55587,249.95006 C 108.77579,249.18313 95.11127,246.20377 82.057592,240.90193 57.432677,230.90034 35.043036,211.49268 21.383958,188.30914 13.001253,174.08116 7.3761198,155.46172 6.1822278,137.99072 c -0.365894,-5.35441 -0.153328,-17.16023 0.392818,-21.81725 0.582821,-4.9697 1.793019,-11.89591 2.814572,-16.10836 C 14.727925,78.052294 26.451806,57.697484 43.625428,40.625494 52.99035,31.315992 61.713074,24.950848 72.811053,19.328165 86.228444,12.530378 100.20088,8.4116147 116.07101,6.5760877 c 4.75509,-0.549965 14.92625,-0.753599 20.0442,-0.401295 16.38042,1.127567 32.11046,5.4589493 46.8121,12.8900323 6.75266,3.4132 11.02277,6.076089 17.12637,10.680157 4.91897,3.710486 8.24065,6.598831 12.81133,11.140043 14.90645,14.810333 25.13766,31.465784 31.60706,51.453416 2.56269,7.917639 4.34483,16.775369 5.20142,25.852809 0.53207,5.63817 0.38921,20.0029 -0.24954,25.09615 -2.36258,18.83832 -8.53023,35.83737 -18.53116,51.07507 -7.05014,10.74178 -16.59461,21.16227 -26.90638,29.37595 -17.96584,14.31041 -40.89002,23.56346 -63.69861,25.71108 -4.13122,0.38898 -13.48782,0.6689 -16.73193,0.50056 z m 17.82497,-13.83285 c 4.60549,-0.52775 11.56403,-1.92468 16.38506,-3.28931 21.83632,-6.18092 41.36972,-19.46191 56.01772,-38.08709 9.62258,-12.23528 16.78351,-27.3558 20.12736,-42.49951 1.88076,-8.51752 2.56785,-15.96473 2.3502,-25.47333 -0.37189,-16.2476 -3.65977,-29.77674 -10.82014,-44.523141 C 222.7407,76.683624 220.7838,73.275866 217.55003,68.503407 212.6558,61.280434 208.13501,55.857852 202.34874,50.269838 187.33716,35.77263 168.61294,26.005289 147.91338,21.874029 136.18222,19.532701 123.26978,19.355949 110.99652,21.368705 89.231564,24.938033 69.016249,35.120037 53.566996,50.294662 47.254005,56.495434 43.30686,61.121049 39.251707,67.070607 27.611931,84.147966 21.458845,102.05933 19.913985,123.36181 c -0.140841,1.94212 -0.256539,3.61625 -0.257101,3.72029 -5.09e-4,0.10407 9.104488,0.18781 20.233466,0.18617 21.547206,-0.003 21.418872,0.003 23.988606,-1.23322 1.861561,-0.89583 0.230431,0.63378 34.050054,-31.93106 4.4661,-4.300391 12.25899,-11.777102 17.31753,-16.614901 5.05855,-4.837809 9.19594,-8.923812 9.19421,-9.080015 -0.002,-0.156202 -0.29693,-1.305506 -0.65598,-2.554012 -0.89242,-3.103128 -1.10077,-7.506458 -0.49605,-10.48381 1.64098,-8.079371 7.464,-14.369436 15.41067,-16.646678 2.56551,-0.735193 7.25779,-0.929321 9.9956,-0.413548 6.65599,1.253927 12.21317,5.455893 15.07085,11.395575 1.87342,3.893911 2.15843,5.162934 2.15398,9.590675 -0.004,4.475437 -0.30947,5.839747 -2.14241,9.584458 -4.71998,9.642965 -15.51587,14.25866 -25.91777,11.080921 -1.16876,-0.357046 -2.43607,-0.710401 -2.81623,-0.785213 -0.81458,-0.160319 0.4079,-1.272885 -18.74414,17.058728 -7.31228,6.99904 -17.51529,16.76006 -22.67334,21.69114 -18.403022,17.59325 -20.311218,19.45711 -20.613142,20.13435 -0.477985,1.07215 -0.450296,25.36464 0.03172,27.84053 0.648467,3.33078 3.113992,10.04804 3.688071,10.04804 0.09452,0 6.27272,-6.04865 13.729233,-13.44143 13.806328,-13.68834 48.477718,-47.7349 53.772558,-52.8035 3.8433,-3.67909 5.89455,-4.97378 9.58468,-6.04962 1.19406,-0.34813 3.11984,-0.45014 10.82964,-0.57366 l 9.37734,-0.15024 0.79832,-1.92466 c 1.27174,-3.06599 2.56819,-4.97492 5.0372,-7.41687 1.83753,-1.81739 2.76736,-2.514933 4.58809,-3.441921 3.41795,-1.740187 5.29424,-2.240291 9.00841,-2.401119 6.55175,-0.283687 11.83095,1.780181 16.17079,6.32188 11.04619,11.55993 5.57169,30.69212 -9.97135,34.84778 -2.16995,0.58017 -6.06069,0.75649 -8.4111,0.38117 -2.52868,-0.40378 -5.52299,-1.49017 -7.79706,-2.82892 -2.31108,-1.36054 -6.06325,-5.10109 -7.24572,-7.22331 -0.48842,-0.87657 -1.03891,-1.75619 -1.22332,-1.95472 -0.27829,-0.2996 -1.78773,-0.36001 -8.88034,-0.35542 -8.04562,0.005 -8.6118,0.0355 -9.68682,0.51905 -0.83461,0.37535 -3.36015,2.70057 -9.38779,8.64309 -4.53533,4.47128 -19.68665,19.39958 -33.66964,33.17401 -18.08704,17.81728 -25.57356,25.35237 -25.943283,26.11161 -0.322728,0.66271 -0.519689,1.57222 -0.519689,2.39969 0,1.52553 0.27589,1.86248 3.431807,4.19127 4.442055,3.27782 8.904645,5.48637 13.819635,6.83935 4.11689,1.13328 2.60976,2.17734 15.07267,-10.44156 22.80991,-23.0954 22.76819,-23.05698 26.56919,-24.47069 2.46948,-0.91849 4.03087,-1.03931 13.96288,-1.08039 5.35205,-0.0222 9.9257,-0.14292 10.16366,-0.2684 0.23796,-0.12548 0.90395,-1.12868 1.47998,-2.22933 3.89248,-7.43755 12.44005,-11.99431 20.41785,-10.88488 3.98545,0.55423 8.04143,2.3297 11.0584,4.8407 2.32488,1.93498 4.94177,6.05477 5.91469,9.31158 0.68518,2.29363 0.94738,5.53208 0.65535,8.09468 -0.95527,8.38279 -6.83499,15.2476 -14.93268,17.43451 -2.74539,0.74143 -7.48738,0.73397 -10.31024,-0.0162 -5.81319,-1.54489 -10.46141,-5.34725 -13.1538,-10.76012 l -0.93957,-1.88895 -9.31852,0.002 c -9.24131,0.002 -9.32903,0.007 -10.58715,0.59355 -1.03254,0.4811 -3.93215,3.29415 -15.58209,15.11688 -7.87242,7.98918 -14.55171,14.89967 -14.84286,15.35664 -0.51755,0.81228 -0.53099,1.13781 -0.60123,14.5589 -0.0498,9.51236 0.0116,13.81099 0.19989,13.99814 0.14945,0.14858 1.32354,0.34668 2.60908,0.44025 3.70761,0.26985 15.69883,0.0199 19.40116,-0.40429 z m -36.53431,-12.77287 -0.0663,-10.36484 -2.79097,-0.70213 C 82.82928,207.45725 66.406149,191.91676 60.528242,173.04459 58.930169,167.91364 58.923136,167.8386 58.756144,154.13297 l -0.153646,-12.61113 -19.116763,-0.0646 -19.116774,-0.0646 0.170142,1.32577 c 1.896888,14.78068 6.990674,29.36169 14.473051,41.42917 14.671285,23.66164 38.939812,41.6096 65.962266,48.78286 1.53503,0.40751 3.04913,0.74943 3.36466,0.75988 l 0.57369,0.0189 z m 87.74815,-45.66709 c 1.64765,-0.60358 3.5286,-2.42324 4.3924,-4.24925 0.56183,-1.1877 0.65623,-1.73187 0.65623,-3.78334 0,-2.06476 -0.0929,-2.59311 -0.67186,-3.82066 -0.85763,-1.81845 -2.41754,-3.36652 -4.23823,-4.20604 -2.08746,-0.96253 -4.91699,-0.95319 -6.91969,0.0229 -1.68916,0.82324 -3.59511,2.75735 -4.35362,4.41793 -0.84099,1.84116 -0.7904,5.24642 0.10621,7.14729 2.06501,4.37798 6.44058,6.15193 11.02856,4.4712 z m 5.89542,-60.59024 c 1.79425,-0.91707 3.33989,-2.4933 4.24818,-4.33229 0.67586,-1.36837 0.74061,-1.73134 0.73984,-4.14793 -7.5e-4,-2.42435 -0.0634,-2.77132 -0.74084,-4.10257 -0.88194,-1.73307 -2.97917,-3.78419 -4.64976,-4.5475 -0.9686,-0.44255 -1.67889,-0.55127 -3.61577,-0.5534 -2.07751,-0.002 -2.6073,0.0891 -3.83631,0.66199 -1.93608,0.90244 -3.28094,2.1727 -4.29839,4.05991 -0.76079,1.41116 -0.86282,1.83843 -0.94965,3.97712 -0.0807,1.98944 -0.005,2.6381 0.44292,3.82182 0.68894,1.8182 1.98813,3.50846 3.48209,4.53025 1.74061,1.19049 2.92591,1.49046 5.53993,1.40203 1.89699,-0.0642 2.51274,-0.19442 3.63776,-0.76943 z M 147.83304,68.584956 c 3.89624,-1.521393 6.16124,-4.839942 6.16696,-9.035458 0.005,-3.917919 -2.08825,-7.283114 -5.50762,-8.852777 -1.4057,-0.645284 -1.8792,-0.731682 -4.01023,-0.731682 -2.21718,0 -2.55539,0.06811 -4.10316,0.825803 -5.87817,2.877767 -7.30049,10.532472 -2.86406,15.41401 0.95957,1.055831 3.30407,2.405777 4.84639,2.790501 1.37206,0.342258 4.06065,0.140597 5.47172,-0.410397 z"
       id="path1" />
  </g>
</svg>
